<svg id="visual" viewBox="0 0 960 540" width="960" height="540" xmlns="http://www.w3.org/2000/svg" xmlns:xlink="http://www.w3.org/1999/xlink" version="1.1"><rect x="0" y="0" width="960" height="540" fill="#0a141c"></rect><g fill="none" stroke="#29accf" stroke-width="2"><circle r="30" cx="314" cy="302"></circle><circle r="8" cx="64" cy="477"></circle><circle r="18" cx="689" cy="411"></circle><circle r="26" cx="378" cy="407"></circle><circle r="8" cx="673" cy="347"></circle><circle r="26" cx="392" cy="294"></circle><circle r="9" cx="638" cy="149"></circle><circle r="25" cx="574" cy="255"></circle><circle r="15" cx="213" cy="455"></circle><circle r="25" cx="276" cy="17"></circle><circle r="13" cx="821" cy="372"></circle><circle r="8" cx="102" cy="347"></circle><circle r="18" cx="604" cy="66"></circle><circle r="15" cx="881" cy="26"></circle><circle r="14" cx="242" cy="186"></circle><circle r="13" cx="340" cy="42"></circle><circle r="25" cx="816" cy="219"></circle><circle r="10" cx="917" cy="128"></circle><circle r="16" cx="734" cy="220"></circle><circle r="10" cx="560" cy="127"></circle><circle r="13" cx="447" cy="356"></circle><circle r="20" cx="511" cy="311"></circle><circle r="27" cx="106" cy="21"></circle><circle r="26" cx="535" cy="499"></circle><circle r="19" cx="190" cy="235"></circle><circle r="8" cx="11" cy="309"></circle><circle r="12" cx="429" cy="504"></circle><circle r="18" cx="176" cy="81"></circle><circle r="20" cx="720" cy="532"></circle><circle r="24" cx="57" cy="146"></circle><circle r="16" cx="271" cy="123"></circle><circle r="15" cx="456" cy="440"></circle><circle r="10" cx="417" cy="50"></circle><circle r="26" cx="221" cy="373"></circle><circle r="7" cx="313" cy="409"></circle><circle r="12" cx="853" cy="144"></circle><circle r="13" cx="178" cy="530"></circle><circle r="7" cx="809" cy="90"></circle><circle r="17" cx="508" cy="221"></circle><circle r="11" cx="491" cy="134"></circle><circle r="8" cx="701" cy="78"></circle><circle r="19" cx="295" cy="469"></circle><circle r="20" cx="420" cy="150"></circle><circle r="10" cx="868" cy="281"></circle><circle r="19" cx="904" cy="495"></circle><circle r="10" cx="150" cy="404"></circle><circle r="10" cx="39" cy="14"></circle><circle r="21" cx="832" cy="471"></circle><circle r="19" cx="61" cy="220"></circle><circle r="15" cx="755" cy="459"></circle><circle r="26" cx="909" cy="430"></circle><circle r="28" cx="17" cy="425"></circle><circle r="14" cx="648" cy="223"></circle><circle r="18" cx="593" cy="433"></circle><circle r="20" cx="935" cy="343"></circle><circle r="8" cx="749" cy="365"></circle><circle r="18" cx="526" cy="23"></circle><circle r="24" cx="361" cy="515"></circle><circle r="27" cx="388" cy="231"></circle><circle r="23" cx="2" cy="488"></circle><circle r="12" cx="85" cy="536"></circle><circle r="16" cx="644" cy="501"></circle></g></svg>