<svg id="visual" viewBox="0 0 900 600" width="900" height="600" xmlns="http://www.w3.org/2000/svg" xmlns:xlink="http://www.w3.org/1999/xlink" version="1.1"><rect x="0" y="0" width="900" height="600" fill="#001220"></rect><g fill="none" stroke="#6159fb" stroke-width="3"><circle r="36" cx="623" cy="560"></circle><circle r="15" cx="379" cy="139"></circle><circle r="20" cx="220" cy="243"></circle><circle r="24" cx="898" cy="168"></circle><circle r="28" cx="826" cy="246"></circle><circle r="15" cx="372" cy="315"></circle><circle r="16" cx="719" cy="448"></circle><circle r="27" cx="179" cy="92"></circle><circle r="21" cx="436" cy="405"></circle><circle r="23" cx="14" cy="465"></circle><circle r="18" cx="339" cy="16"></circle><circle r="23" cx="161" cy="544"></circle><circle r="22" cx="417" cy="573"></circle><circle r="19" cx="71" cy="168"></circle><circle r="18" cx="758" cy="10"></circle><circle r="19" cx="261" cy="28"></circle><circle r="23" cx="249" cy="504"></circle><circle r="25" cx="480" cy="279"></circle><circle r="29" cx="805" cy="524"></circle><circle r="14" cx="720" cy="564"></circle><circle r="22" cx="892" cy="305"></circle><circle r="24" cx="693" cy="315"></circle><circle r="23" cx="878" cy="422"></circle><circle r="25" cx="502" cy="44"></circle><circle r="32" cx="617" cy="136"></circle><circle r="25" cx="45" cy="258"></circle><circle r="26" cx="741" cy="132"></circle><circle r="15" cx="32" cy="590"></circle><circle r="30" cx="525" cy="598"></circle><circle r="14" cx="91" cy="68"></circle><circle r="18" cx="244" cy="135"></circle><circle r="31" cx="40" cy="345"></circle><circle r="15" cx="543" cy="468"></circle><circle r="20" cx="127" cy="402"></circle><circle r="32" cx="564" cy="367"></circle><circle r="25" cx="4" cy="99"></circle><circle r="21" cx="368" cy="469"></circle><circle r="34" cx="110" cy="316"></circle><circle r="15" cx="461" cy="169"></circle><circle r="25" cx="617" cy="251"></circle><circle r="14" cx="842" cy="15"></circle><circle r="20" cx="687" cy="200"></circle><circle r="17" cx="547" cy="178"></circle><circle r="30" cx="627" cy="457"></circle><circle r="23" cx="328" cy="390"></circle><circle r="21" cx="681" cy="73"></circle><circle r="16" cx="854" cy="91"></circle><circle r="20" cx="245" cy="584"></circle><circle r="23" cx="417" cy="46"></circle><circle r="31" cx="247" cy="346"></circle><circle r="21" cx="339" cy="596"></circle><circle r="21" cx="897" cy="513"></circle><circle r="23" cx="439" cy="492"></circle><circle r="22" cx="353" cy="226"></circle><circle r="22" cx="787" cy="396"></circle><circle r="18" cx="90" cy="516"></circle><circle r="30" cx="672" cy="388"></circle><circle r="22" cx="146" cy="2"></circle><circle r="22" cx="817" cy="322"></circle><circle r="25" cx="153" cy="182"></circle><circle r="17" cx="190" cy="447"></circle><circle r="30" cx="897" cy="598"></circle><circle r="16" cx="606" cy="53"></circle><circle r="15" cx="742" cy="255"></circle><circle r="19" cx="31" cy="20"></circle><circle r="19" cx="820" cy="159"></circle><circle r="26" cx="294" cy="284"></circle><circle r="30" cx="315" cy="97"></circle></g></svg>